<svg xmlns="http://www.w3.org/2000/svg" viewBox="0 0 64 64" fill="none">
  <defs>
    <linearGradient id="duster-feathers" x1="32" y1="4" x2="32" y2="36" gradientUnits="userSpaceOnUse">
      <stop offset="0%" stop-color="#e9d5ff"/>
      <stop offset="55%" stop-color="#a855f7"/>
      <stop offset="100%" stop-color="#7c3aed"/>
    </linearGradient>
    <linearGradient id="duster-tip" x1="0" y1="0" x2="1" y2="1">
      <stop offset="0%" stop-color="#c084fc"/>
      <stop offset="100%" stop-color="#47bfff"/>
    </linearGradient>
    <linearGradient id="duster-handle" x1="0" y1="0" x2="1" y2="1">
      <stop offset="0%" stop-color="#a855f7"/>
      <stop offset="100%" stop-color="#6b21d6"/>
    </linearGradient>
    <radialGradient id="duster-glow" cx="50%" cy="35%" r="55%">
      <stop offset="0%" stop-color="#a855f7" stop-opacity="0.35"/>
      <stop offset="100%" stop-color="#a855f7" stop-opacity="0"/>
    </radialGradient>
  </defs>

  <circle cx="32" cy="22" r="24" fill="url(#duster-glow)"/>

  <g stroke="url(#duster-feathers)" stroke-width="3.5" stroke-linecap="round">
    <line x1="32" y1="34" x2="13" y2="15"/>
    <line x1="32" y1="34" x2="21" y2="4"/>
    <line x1="32" y1="34" x2="32" y2="2"/>
    <line x1="32" y1="34" x2="43" y2="4"/>
    <line x1="32" y1="34" x2="51" y2="15"/>
  </g>

  <circle cx="13" cy="15" r="2.2" fill="url(#duster-tip)"/>
  <circle cx="21" cy="4"  r="2.2" fill="url(#duster-tip)"/>
  <circle cx="32" cy="2"  r="2.6" fill="url(#duster-tip)"/>
  <circle cx="43" cy="4"  r="2.2" fill="url(#duster-tip)"/>
  <circle cx="51" cy="15" r="2.2" fill="url(#duster-tip)"/>

  <rect x="25" y="32" width="14" height="6" rx="3" fill="url(#duster-tip)"/>

  <rect x="29" y="37" width="6" height="22" rx="3" fill="url(#duster-handle)"/>

  <circle cx="32" cy="60" r="2.4" fill="#7c3aed"/>

  <circle cx="56" cy="9"  r="1.3" fill="#47bfff" opacity="0.55"/>
  <circle cx="60" cy="14" r="1"   fill="#a855f7" opacity="0.45"/>
</svg>
